<svg width="320" height="377" viewBox="0 0 320 377" fill="none" xmlns="http://www.w3.org/2000/svg">
<mask id="path-1-outside-1_1710_168" maskUnits="userSpaceOnUse" x="0.964355" y="0" width="319" height="337" fill="black">
<rect fill="white" x="0.964355" width="319" height="337"/>
<path d="M236.188 183.098C236.188 178.573 235.768 174.001 236.287 169.535C237.05 162.958 240.586 158.058 247.669 157.247C254.827 156.428 258.794 161.251 259.903 167.136C264.22 190.059 261.19 212.008 249.611 232.65C247.822 235.839 241.843 239.26 246.064 242.847C250.286 246.435 256.481 245.184 261.462 241.922C262.207 241.396 262.905 240.806 263.546 240.16C268.659 235.344 274.135 234.084 279.813 239.034C284.987 243.543 285.307 251.211 279.848 256.881C271.144 265.919 260.149 269.849 247.485 268.249C242.042 267.562 236.704 266.099 231.285 265.178C209.62 261.496 190.612 273.891 185.805 294.782C185.344 296.786 184.054 299.081 185.682 300.799C187.706 302.936 190.318 301.796 192.411 300.592C220.748 284.283 249.061 284.384 277.963 299.562C284.966 303.241 293.353 302.471 301.347 300.779C310.183 298.908 316.279 302.12 318.246 309.046C320.138 315.708 315.309 322.682 306.838 324.995C293.189 328.722 280.289 325.905 267.591 320.563C253.059 314.45 238.15 310.35 222.131 314.386C214.645 316.273 207.765 319.566 201.217 323.428C174.441 339.223 147.382 340.005 120.381 324.527C98.1604 311.789 76.001 309.598 52.2599 320.721C40.3924 326.282 27.3975 329.286 13.8807 325.844C6.65179 324.004 1.11314 320.398 2.07263 312.264C3.08598 303.674 9.1859 301.043 17.3408 301.854C28.68 303.064 40.1334 301.043 50.3418 296.029C73.5475 284.639 96.2246 286.048 119.064 297.115C123.638 299.332 129.855 304.802 133.763 300.23C136.671 296.828 132.415 290.161 129.836 285.368C120.714 268.418 108.25 262.27 89.0581 265.262C77.0277 267.138 65.0135 270.465 53.0564 264.661C48.3015 262.353 43.8979 259.733 40.947 255.308C36.8348 249.142 37.5575 243.262 42.798 238.129C47.9453 233.088 52.789 235.811 57.5298 239.111C60.5092 241.185 63.3766 243.627 66.6838 244.977C70.3612 246.478 74.038 244.928 76.6418 242.113C79.8219 238.674 75.9339 236.587 74.2873 234.587C60.0503 217.294 57.2408 197.053 58.2973 175.78C58.4665 173.673 58.8567 171.589 59.4614 169.562C61.221 162.98 64.1696 157.408 72.4221 158.326C80.3454 159.209 82.7465 165.109 83.448 171.781C83.8872 175.957 83.4847 180.22 83.4495 184.444C83.2112 213.053 98.7515 231.852 122.874 244.836C133.26 250.427 140.832 248.557 144.227 241.115C148.34 232.099 144.11 222.769 133.673 218.556C128.024 216.275 122.125 214.569 117.011 211.157C111.305 207.35 106.753 202.644 104.837 195.861C103.237 190.196 104.947 185.671 109.791 182.52C114.882 179.209 119.068 181.543 122.779 185.277C124.705 187.215 126.518 189.266 128.509 191.134C131.833 194.251 135.475 195.946 140.093 193.561C144.98 191.038 145.865 186.589 145.339 182.017C144.369 173.582 138.899 167.719 130.929 166.339C112.682 163.179 102.193 150.069 90.8801 137.947C85.245 131.909 84.897 123.212 89.6733 119.109C96.4495 113.289 102.193 117.277 107.479 121.786C113.482 126.906 118.467 133.141 125.269 137.403C133.602 142.626 140.51 142.577 144.01 137.142C148.264 130.535 146.246 121.09 138.791 116.449C132.638 112.618 125.741 109.969 119.39 106.421C114.028 103.425 109.112 99.6244 106.659 93.8161C104.131 87.8304 104.042 81.7726 109.887 77.5063C115.869 73.1396 120.845 76.3616 125.226 80.6672C126.893 82.4298 128.454 84.2879 129.9 86.2318C132.855 89.9219 136.701 91.806 141.166 89.8457C145.676 87.8656 146.604 83.4649 146.022 79.0761C145.145 72.4537 141.893 67.2809 135.604 64.1223C130.401 61.6057 125.333 58.8283 120.418 55.801C113.398 51.3282 111.603 44.4853 113.118 36.7828C113.455 34.6791 114.413 32.7199 115.874 31.1501C117.334 29.5802 119.231 28.4692 121.327 27.9559C125.37 26.8479 128.442 28.6813 131.11 31.4266C131.954 32.2953 132.608 33.3465 133.47 34.1946C136.039 36.7221 138.475 40.155 142.695 38.7801C147.205 37.3106 147.768 33.2893 147.727 29.1378C147.677 24.0101 147.433 18.8429 147.954 13.7607C148.702 6.46886 152.076 0.876956 160.508 1.00206C168.852 1.12584 172.329 6.37821 172.622 13.9974C172.841 19.7226 172.552 25.4683 172.824 31.1895C172.964 34.1466 173.273 37.4676 176.745 38.7761C180.379 40.1457 183.261 38.4305 185.813 36.0192C186.714 35.2017 187.566 34.3336 188.365 33.4192C192.261 28.7725 196.196 24.4493 202.849 29.4117C208.76 33.8205 210.61 42.5439 206.679 48.9035C202.117 56.2846 194.419 59.5265 186.867 62.8402C179.336 66.1445 174.282 71.2087 173.777 79.7557C173.526 83.9933 174.654 87.7951 178.779 89.5573C183.061 91.3865 187.251 90.4522 190.478 86.9518C192.109 85.1686 193.556 83.2304 194.798 81.1656C198.334 75.3253 203.617 73.1289 209.589 76.139C215.852 79.2963 217.085 85.3664 215.067 91.7706C213.348 97.2228 209.079 100.926 204.464 103.885C199.043 107.258 193.434 110.327 187.664 113.079C184.052 114.861 180.72 116.837 178.084 119.887C173.322 125.395 172.561 131.985 176.49 137.456C180.784 143.435 187.478 141.431 193.102 138.512C201.309 134.253 207.653 127.577 214.513 121.584C219.592 117.147 225.167 113.244 231.154 119.728C236.499 125.517 235.853 131.798 230.441 137.493C218.738 149.805 207.56 162.573 189.382 166.286C181.62 167.872 175.55 172.897 174.198 181.439C173.378 186.619 175.044 191.313 179.742 193.895C184.833 196.692 189.115 194.016 192.807 190.412C193.252 189.997 193.636 189.522 193.947 189.002C197.546 182.626 202.455 179.317 209.68 183.366C215.25 186.487 216.404 194.943 212.606 202.098C208.978 208.934 202.847 212.616 195.693 215.061C190.803 216.733 185.676 217.908 181.414 221.042C174.663 226.006 171.806 234.822 175.336 240.996C179.631 248.508 186.322 248.373 193.693 246.151C218.94 238.542 236.366 212.809 236.188 183.098Z"/>
</mask>
<path d="M236.188 183.098C236.188 178.573 235.768 174.001 236.287 169.535C237.05 162.958 240.586 158.058 247.669 157.247C254.827 156.428 258.794 161.251 259.903 167.136C264.22 190.059 261.19 212.008 249.611 232.65C247.822 235.839 241.843 239.26 246.064 242.847C250.286 246.435 256.481 245.184 261.462 241.922C262.207 241.396 262.905 240.806 263.546 240.16C268.659 235.344 274.135 234.084 279.813 239.034C284.987 243.543 285.307 251.211 279.848 256.881C271.144 265.919 260.149 269.849 247.485 268.249C242.042 267.562 236.704 266.099 231.285 265.178C209.62 261.496 190.612 273.891 185.805 294.782C185.344 296.786 184.054 299.081 185.682 300.799C187.706 302.936 190.318 301.796 192.411 300.592C220.748 284.283 249.061 284.384 277.963 299.562C284.966 303.241 293.353 302.471 301.347 300.779C310.183 298.908 316.279 302.12 318.246 309.046C320.138 315.708 315.309 322.682 306.838 324.995C293.189 328.722 280.289 325.905 267.591 320.563C253.059 314.45 238.15 310.35 222.131 314.386C214.645 316.273 207.765 319.566 201.217 323.428C174.441 339.223 147.382 340.005 120.381 324.527C98.1604 311.789 76.001 309.598 52.2599 320.721C40.3924 326.282 27.3975 329.286 13.8807 325.844C6.65179 324.004 1.11314 320.398 2.07263 312.264C3.08598 303.674 9.1859 301.043 17.3408 301.854C28.68 303.064 40.1334 301.043 50.3418 296.029C73.5475 284.639 96.2246 286.048 119.064 297.115C123.638 299.332 129.855 304.802 133.763 300.23C136.671 296.828 132.415 290.161 129.836 285.368C120.714 268.418 108.25 262.27 89.0581 265.262C77.0277 267.138 65.0135 270.465 53.0564 264.661C48.3015 262.353 43.8979 259.733 40.947 255.308C36.8348 249.142 37.5575 243.262 42.798 238.129C47.9453 233.088 52.789 235.811 57.5298 239.111C60.5092 241.185 63.3766 243.627 66.6838 244.977C70.3612 246.478 74.038 244.928 76.6418 242.113C79.8219 238.674 75.9339 236.587 74.2873 234.587C60.0503 217.294 57.2408 197.053 58.2973 175.78C58.4665 173.673 58.8567 171.589 59.4614 169.562C61.221 162.98 64.1696 157.408 72.4221 158.326C80.3454 159.209 82.7465 165.109 83.448 171.781C83.8872 175.957 83.4847 180.22 83.4495 184.444C83.2112 213.053 98.7515 231.852 122.874 244.836C133.26 250.427 140.832 248.557 144.227 241.115C148.34 232.099 144.11 222.769 133.673 218.556C128.024 216.275 122.125 214.569 117.011 211.157C111.305 207.35 106.753 202.644 104.837 195.861C103.237 190.196 104.947 185.671 109.791 182.52C114.882 179.209 119.068 181.543 122.779 185.277C124.705 187.215 126.518 189.266 128.509 191.134C131.833 194.251 135.475 195.946 140.093 193.561C144.98 191.038 145.865 186.589 145.339 182.017C144.369 173.582 138.899 167.719 130.929 166.339C112.682 163.179 102.193 150.069 90.8801 137.947C85.245 131.909 84.897 123.212 89.6733 119.109C96.4495 113.289 102.193 117.277 107.479 121.786C113.482 126.906 118.467 133.141 125.269 137.403C133.602 142.626 140.51 142.577 144.01 137.142C148.264 130.535 146.246 121.09 138.791 116.449C132.638 112.618 125.741 109.969 119.39 106.421C114.028 103.425 109.112 99.6244 106.659 93.8161C104.131 87.8304 104.042 81.7726 109.887 77.5063C115.869 73.1396 120.845 76.3616 125.226 80.6672C126.893 82.4298 128.454 84.2879 129.9 86.2318C132.855 89.9219 136.701 91.806 141.166 89.8457C145.676 87.8656 146.604 83.4649 146.022 79.0761C145.145 72.4537 141.893 67.2809 135.604 64.1223C130.401 61.6057 125.333 58.8283 120.418 55.801C113.398 51.3282 111.603 44.4853 113.118 36.7828C113.455 34.6791 114.413 32.7199 115.874 31.1501C117.334 29.5802 119.231 28.4692 121.327 27.9559C125.37 26.8479 128.442 28.6813 131.11 31.4266C131.954 32.2953 132.608 33.3465 133.47 34.1946C136.039 36.7221 138.475 40.155 142.695 38.7801C147.205 37.3106 147.768 33.2893 147.727 29.1378C147.677 24.0101 147.433 18.8429 147.954 13.7607C148.702 6.46886 152.076 0.876956 160.508 1.00206C168.852 1.12584 172.329 6.37821 172.622 13.9974C172.841 19.7226 172.552 25.4683 172.824 31.1895C172.964 34.1466 173.273 37.4676 176.745 38.7761C180.379 40.1457 183.261 38.4305 185.813 36.0192C186.714 35.2017 187.566 34.3336 188.365 33.4192C192.261 28.7725 196.196 24.4493 202.849 29.4117C208.76 33.8205 210.61 42.5439 206.679 48.9035C202.117 56.2846 194.419 59.5265 186.867 62.8402C179.336 66.1445 174.282 71.2087 173.777 79.7557C173.526 83.9933 174.654 87.7951 178.779 89.5573C183.061 91.3865 187.251 90.4522 190.478 86.9518C192.109 85.1686 193.556 83.2304 194.798 81.1656C198.334 75.3253 203.617 73.1289 209.589 76.139C215.852 79.2963 217.085 85.3664 215.067 91.7706C213.348 97.2228 209.079 100.926 204.464 103.885C199.043 107.258 193.434 110.327 187.664 113.079C184.052 114.861 180.72 116.837 178.084 119.887C173.322 125.395 172.561 131.985 176.49 137.456C180.784 143.435 187.478 141.431 193.102 138.512C201.309 134.253 207.653 127.577 214.513 121.584C219.592 117.147 225.167 113.244 231.154 119.728C236.499 125.517 235.853 131.798 230.441 137.493C218.738 149.805 207.56 162.573 189.382 166.286C181.62 167.872 175.55 172.897 174.198 181.439C173.378 186.619 175.044 191.313 179.742 193.895C184.833 196.692 189.115 194.016 192.807 190.412C193.252 189.997 193.636 189.522 193.947 189.002C197.546 182.626 202.455 179.317 209.68 183.366C215.25 186.487 216.404 194.943 212.606 202.098C208.978 208.934 202.847 212.616 195.693 215.061C190.803 216.733 185.676 217.908 181.414 221.042C174.663 226.006 171.806 234.822 175.336 240.996C179.631 248.508 186.322 248.373 193.693 246.151C218.94 238.542 236.366 212.809 236.188 183.098Z" fill="#525252"/>
<path d="M236.188 183.098C236.188 178.573 235.768 174.001 236.287 169.535C237.05 162.958 240.586 158.058 247.669 157.247C254.827 156.428 258.794 161.251 259.903 167.136C264.22 190.059 261.19 212.008 249.611 232.65C247.822 235.839 241.843 239.26 246.064 242.847C250.286 246.435 256.481 245.184 261.462 241.922C262.207 241.396 262.905 240.806 263.546 240.16C268.659 235.344 274.135 234.084 279.813 239.034C284.987 243.543 285.307 251.211 279.848 256.881C271.144 265.919 260.149 269.849 247.485 268.249C242.042 267.562 236.704 266.099 231.285 265.178C209.62 261.496 190.612 273.891 185.805 294.782C185.344 296.786 184.054 299.081 185.682 300.799C187.706 302.936 190.318 301.796 192.411 300.592C220.748 284.283 249.061 284.384 277.963 299.562C284.966 303.241 293.353 302.471 301.347 300.779C310.183 298.908 316.279 302.12 318.246 309.046C320.138 315.708 315.309 322.682 306.838 324.995C293.189 328.722 280.289 325.905 267.591 320.563C253.059 314.45 238.15 310.35 222.131 314.386C214.645 316.273 207.765 319.566 201.217 323.428C174.441 339.223 147.382 340.005 120.381 324.527C98.1604 311.789 76.001 309.598 52.2599 320.721C40.3924 326.282 27.3975 329.286 13.8807 325.844C6.65179 324.004 1.11314 320.398 2.07263 312.264C3.08598 303.674 9.1859 301.043 17.3408 301.854C28.68 303.064 40.1334 301.043 50.3418 296.029C73.5475 284.639 96.2246 286.048 119.064 297.115C123.638 299.332 129.855 304.802 133.763 300.23C136.671 296.828 132.415 290.161 129.836 285.368C120.714 268.418 108.25 262.27 89.0581 265.262C77.0277 267.138 65.0135 270.465 53.0564 264.661C48.3015 262.353 43.8979 259.733 40.947 255.308C36.8348 249.142 37.5575 243.262 42.798 238.129C47.9453 233.088 52.789 235.811 57.5298 239.111C60.5092 241.185 63.3766 243.627 66.6838 244.977C70.3612 246.478 74.038 244.928 76.6418 242.113C79.8219 238.674 75.9339 236.587 74.2873 234.587C60.0503 217.294 57.2408 197.053 58.2973 175.78C58.4665 173.673 58.8567 171.589 59.4614 169.562C61.221 162.98 64.1696 157.408 72.4221 158.326C80.3454 159.209 82.7465 165.109 83.448 171.781C83.8872 175.957 83.4847 180.22 83.4495 184.444C83.2112 213.053 98.7515 231.852 122.874 244.836C133.26 250.427 140.832 248.557 144.227 241.115C148.34 232.099 144.11 222.769 133.673 218.556C128.024 216.275 122.125 214.569 117.011 211.157C111.305 207.35 106.753 202.644 104.837 195.861C103.237 190.196 104.947 185.671 109.791 182.52C114.882 179.209 119.068 181.543 122.779 185.277C124.705 187.215 126.518 189.266 128.509 191.134C131.833 194.251 135.475 195.946 140.093 193.561C144.98 191.038 145.865 186.589 145.339 182.017C144.369 173.582 138.899 167.719 130.929 166.339C112.682 163.179 102.193 150.069 90.8801 137.947C85.245 131.909 84.897 123.212 89.6733 119.109C96.4495 113.289 102.193 117.277 107.479 121.786C113.482 126.906 118.467 133.141 125.269 137.403C133.602 142.626 140.51 142.577 144.01 137.142C148.264 130.535 146.246 121.09 138.791 116.449C132.638 112.618 125.741 109.969 119.39 106.421C114.028 103.425 109.112 99.6244 106.659 93.8161C104.131 87.8304 104.042 81.7726 109.887 77.5063C115.869 73.1396 120.845 76.3616 125.226 80.6672C126.893 82.4298 128.454 84.2879 129.9 86.2318C132.855 89.9219 136.701 91.806 141.166 89.8457C145.676 87.8656 146.604 83.4649 146.022 79.0761C145.145 72.4537 141.893 67.2809 135.604 64.1223C130.401 61.6057 125.333 58.8283 120.418 55.801C113.398 51.3282 111.603 44.4853 113.118 36.7828C113.455 34.6791 114.413 32.7199 115.874 31.1501C117.334 29.5802 119.231 28.4692 121.327 27.9559C125.37 26.8479 128.442 28.6813 131.11 31.4266C131.954 32.2953 132.608 33.3465 133.47 34.1946C136.039 36.7221 138.475 40.155 142.695 38.7801C147.205 37.3106 147.768 33.2893 147.727 29.1378C147.677 24.0101 147.433 18.8429 147.954 13.7607C148.702 6.46886 152.076 0.876956 160.508 1.00206C168.852 1.12584 172.329 6.37821 172.622 13.9974C172.841 19.7226 172.552 25.4683 172.824 31.1895C172.964 34.1466 173.273 37.4676 176.745 38.7761C180.379 40.1457 183.261 38.4305 185.813 36.0192C186.714 35.2017 187.566 34.3336 188.365 33.4192C192.261 28.7725 196.196 24.4493 202.849 29.4117C208.76 33.8205 210.61 42.5439 206.679 48.9035C202.117 56.2846 194.419 59.5265 186.867 62.8402C179.336 66.1445 174.282 71.2087 173.777 79.7557C173.526 83.9933 174.654 87.7951 178.779 89.5573C183.061 91.3865 187.251 90.4522 190.478 86.9518C192.109 85.1686 193.556 83.2304 194.798 81.1656C198.334 75.3253 203.617 73.1289 209.589 76.139C215.852 79.2963 217.085 85.3664 215.067 91.7706C213.348 97.2228 209.079 100.926 204.464 103.885C199.043 107.258 193.434 110.327 187.664 113.079C184.052 114.861 180.72 116.837 178.084 119.887C173.322 125.395 172.561 131.985 176.49 137.456C180.784 143.435 187.478 141.431 193.102 138.512C201.309 134.253 207.653 127.577 214.513 121.584C219.592 117.147 225.167 113.244 231.154 119.728C236.499 125.517 235.853 131.798 230.441 137.493C218.738 149.805 207.56 162.573 189.382 166.286C181.62 167.872 175.55 172.897 174.198 181.439C173.378 186.619 175.044 191.313 179.742 193.895C184.833 196.692 189.115 194.016 192.807 190.412C193.252 189.997 193.636 189.522 193.947 189.002C197.546 182.626 202.455 179.317 209.68 183.366C215.25 186.487 216.404 194.943 212.606 202.098C208.978 208.934 202.847 212.616 195.693 215.061C190.803 216.733 185.676 217.908 181.414 221.042C174.663 226.006 171.806 234.822 175.336 240.996C179.631 248.508 186.322 248.373 193.693 246.151C218.94 238.542 236.366 212.809 236.188 183.098Z" stroke="#525252" stroke-width="0.8" mask="url(#path-1-outside-1_1710_168)"/>
<path d="M32.2583 51.8312L32.2583 51.8311L32.2521 51.8315C28.5287 52.0219 25.033 53.6592 22.5309 56.3857C20.0286 59.1122 18.7241 62.7058 18.9038 66.3793C19.0835 70.0529 20.7328 73.5058 23.4894 75.9822C26.246 78.4585 29.8851 79.7565 33.6098 79.5929L33.6099 79.5929C41.6058 79.2385 47.5148 72.9311 47.0952 65.17L47.0953 65.17L47.095 65.1662C46.8251 61.4919 45.1349 58.0604 42.374 55.5795C39.6132 53.0986 35.9923 51.7572 32.2583 51.8312ZM34.3837 214.242L34.3858 214.222L34.3841 214.202C34.0893 210.94 32.9097 208.396 31.0145 206.682C29.1193 204.968 26.5291 204.102 23.4493 204.158C20.2883 204.215 17.6872 205.256 15.9152 207.121C14.1428 208.987 13.2209 211.655 13.3765 214.927C13.5196 217.934 14.5078 220.323 16.263 221.962C18.0175 223.602 20.5144 224.47 23.6313 224.487C26.9923 224.506 29.5137 223.569 31.2815 221.796C33.0458 220.027 34.0337 217.451 34.3837 214.242ZM287.152 214.442L287.15 214.462L287.153 214.481C287.499 217.39 288.361 219.895 289.957 221.683C291.559 223.477 293.88 224.525 297.091 224.553C300.462 224.583 303.137 223.622 304.928 221.815C306.72 220.007 307.599 217.379 307.431 214.13C307.271 211.052 306.27 208.398 304.447 206.551C302.621 204.702 299.992 203.683 296.621 203.839C293.474 203.984 291.21 205.153 289.68 207.043C288.155 208.926 287.377 211.504 287.152 214.442ZM261.578 360.879C271.717 366.093 282.48 369.491 294.46 369.034C300.04 369.453 305.921 369.267 311.231 366.315C314.419 364.543 316.792 362.249 318.087 359.514C319.384 356.776 319.591 353.616 318.478 350.133C317.372 346.675 315.266 344.711 312.65 343.81C310.046 342.914 306.958 343.079 303.884 343.829C292.225 346.669 281.253 344.223 271.221 338.88C247.776 326.395 224.761 327.032 202.157 340.109C187.589 348.537 173.136 352.692 158.755 352.561C144.375 352.431 130.054 348.015 115.75 339.283C95.1414 326.701 74.1094 326.828 52.6816 336.831C40.3582 342.585 27.7664 346.83 13.91 344.335C11.5486 343.91 9.36337 343.862 7.43738 344.46C5.50477 345.061 3.84995 346.308 2.5461 348.441C1.08679 350.828 0.596873 353.193 0.873886 355.501C1.15047 357.805 2.18965 360.038 3.76377 362.166C7.34595 367.009 12.5518 368.629 18.2993 368.974C32.1287 369.805 45.0421 366.615 57.3356 360.543C74.4229 352.103 91.489 352.336 108.035 361.658C142.432 381.039 176.8 380.617 211.094 361.839C227.912 352.629 244.485 352.087 261.578 360.879Z" fill="#525252" stroke="#525252" stroke-width="0.4"/>
</svg>
